<?xml version="1.0" encoding="UTF-8" standalone="no"?>
<svg width="400px" height="400px" viewBox="0 0 400 400" version="1.1" xmlns="http://www.w3.org/2000/svg" xmlns:xlink="http://www.w3.org/1999/xlink" xmlns:sketch="http://www.bohemiancoding.com/sketch/ns">
    <title>Heart</title>
    <description>Created with Sketch (http://www.bohemiancoding.com/sketch)</description>
    <defs></defs>
    <g id="Page 1" stroke="none" stroke-width="1" fill="none" fill-rule="evenodd">
        <g id="Heart" fill="#DC6161">
            <path d="M258.342639,150.670145 C251.467712,143.78972 242.329891,140 232.609514,140 C222.888581,140 213.750203,143.78972 206.877502,150.670145 C204.308028,153.242297 202.169768,156.132488 200.5,159.249928 C198.829675,156.131931 196.693084,153.24174 194.124167,150.670145 C187.248684,143.78972 178.111419,140 168.390486,140 C158.669553,140 149.531175,143.78972 142.65903,150.670145 C135.785772,157.550013 132,166.69792 132,176.428432 C132,186.158945 135.785772,195.307409 142.65903,202.187277 L194.22432,257.260752 C195.844568,259.008568 198.119148,260 200.5,260 C202.880852,260 205.154319,259.008568 206.774567,257.260752 L258.342639,202.187277 C265.214784,195.307409 269,186.159502 269,176.428432 C269,166.697363 265.214784,157.550013 258.342639,150.670145 L258.342639,150.670145 Z M258.342639,150.670145" id="Shape"></path>
        </g>
    </g>
</svg>