<?xml version="1.0" encoding="UTF-8" standalone="no"?>
<svg width="400px" height="400px" viewBox="0 0 400 400" version="1.1" xmlns="http://www.w3.org/2000/svg" xmlns:xlink="http://www.w3.org/1999/xlink" xmlns:sketch="http://www.bohemiancoding.com/sketch/ns">
    <title>Hud-pause</title>
    <description>Created with Sketch (http://www.bohemiancoding.com/sketch)</description>
    <defs></defs>
    <g id="Page 1" stroke="none" stroke-width="1" fill="none" fill-rule="evenodd">
        <g id="Hud-pause">
            <path d="M16.0048064,0 C7.16559589,0 0,7.15525675 0,16.0048064 L0,383.995194 C0,392.834404 7.15525675,400 16.0048064,400 L383.995194,400 C392.834404,400 400,392.844743 400,383.995194 L400,16.0048064 C400,7.16559589 392.844743,0 383.995194,0 L16.0048064,0 Z M16.0048064,0" id="Rectangle 9" fill-opacity="0.57421875" fill="#000000"></path>
            <path d="M171.876238,300.693069 C171.876238,306.871149 166.867317,311.881188 160.688119,311.881188 L104.747525,311.881188 C98.5683267,311.881188 93.5594059,306.871149 93.5594059,300.693069 L93.5594059,98.1881188 C93.5594059,92.0089208 98.5683267,87 104.747525,87 L160.688119,87 C166.867317,87 171.876238,92.0089208 171.876238,98.1881188 Z M306.440594,301.811881 C306.440594,307.98996 301.431673,313 295.252475,313 L239.311881,313 C233.132683,313 228.123762,307.98996 228.123762,301.811881 L228.123762,99.3069307 C228.123762,93.1277327 233.132683,88.1188119 239.311881,88.1188119 L295.252475,88.1188119 C301.431673,88.1188119 306.440594,93.1277327 306.440594,99.3069307 Z M306.440594,301.811881" id="Shape" fill="#FAFAFA"></path>
        </g>
    </g>
</svg>