<?xml version="1.0" encoding="UTF-8" standalone="no"?>
<svg width="400px" height="400px" viewBox="0 0 400 400" version="1.1" xmlns="http://www.w3.org/2000/svg" xmlns:xlink="http://www.w3.org/1999/xlink" xmlns:sketch="http://www.bohemiancoding.com/sketch/ns">
    <title>Love</title>
    <description>Created with Sketch (http://www.bohemiancoding.com/sketch)</description>
    <defs></defs>
    <g id="Page 1" stroke="none" stroke-width="1" fill="none" fill-rule="evenodd">
        <g id="Love" fill="#9F9F9F">
            <path d="M259.342639,150.670145 C252.467712,143.78972 243.329891,140 233.609514,140 C223.888581,140 214.750203,143.78972 207.877502,150.670145 C205.308028,153.242297 203.169768,156.132488 201.5,159.249928 C199.829675,156.131931 197.693084,153.24174 195.124167,150.670145 C188.248684,143.78972 179.111419,140 169.390486,140 C159.669553,140 150.531175,143.78972 143.65903,150.670145 C136.785772,157.550013 133,166.69792 133,176.428432 C133,186.158945 136.785772,195.307409 143.65903,202.187277 L195.22432,257.260752 C196.844568,259.008568 199.119148,260 201.5,260 C203.880852,260 206.154319,259.008568 207.774567,257.260752 L259.342639,202.187277 C266.214784,195.307409 270,186.159502 270,176.428432 C270,166.697363 266.214784,157.550013 259.342639,150.670145 L259.342639,150.670145 Z M259.342639,150.670145" id="Shape"></path>
        </g>
    </g>
</svg>