<?xml version="1.0" encoding="UTF-8" standalone="no"?>
<svg width="400px" height="400px" viewBox="0 0 400 400" version="1.1" xmlns="http://www.w3.org/2000/svg" xmlns:xlink="http://www.w3.org/1999/xlink" xmlns:sketch="http://www.bohemiancoding.com/sketch/ns">
    <title>Next</title>
    <description>Created with Sketch (http://www.bohemiancoding.com/sketch)</description>
    <defs></defs>
    <g id="Page 1" stroke="none" stroke-width="1" fill="none" fill-rule="evenodd">
        <g id="Next" fill="#9F9F9F">
            <path d="M143.899222,142.215812 L186,184.356791 L186,170.25 L186,147.5625 C186,144.503469 187.841037,141.746307 190.664926,140.57601 C191.599926,140.188432 192.581519,140 193.553667,140 C195.52,140 197.452963,140.768224 198.899222,142.215812 L251.786222,195.153312 C252.27016,195.637281 252.674754,196.170631 253,196.737165 L253,146.302083 C253,142.821443 255.779448,140 259.206897,140 L264.793103,140 C268.220552,140 271,142.821443 271,146.302083 L271,254.697917 C271,258.177927 268.220552,261 264.793103,261 L259.206897,261 C255.779448,261 253,258.177927 253,254.697917 L253,204.263318 C252.674754,204.830061 252.27016,205.363669 251.786222,205.847948 L198.899222,258.785448 C197.452963,260.231776 195.521889,261 193.553667,261 C192.581519,261 191.599926,260.811568 190.664926,260.42399 C187.841037,259.253693 186,256.496531 186,253.4375 L186,230.75 L186,216.64447 L143.899222,258.785448 C142.452963,260.231776 140.521889,261 138.553667,261 C137.581519,261 136.599926,260.811568 135.664926,260.42399 C132.841037,259.253693 131,256.496531 131,253.4375 L131,230.75 L131,170.25 L131,147.5625 C131,144.503469 132.841037,141.746307 135.664926,140.57601 C136.599926,140.188432 137.581519,140 138.553667,140 C140.52,140 142.452963,140.768224 143.899222,142.215812 Z M143.899222,142.215812" id="Shape"></path>
        </g>
    </g>
</svg>