<?xml version="1.0" encoding="UTF-8" standalone="no"?>
<svg width="400px" height="400px" viewBox="0 0 400 400" version="1.1" xmlns="http://www.w3.org/2000/svg" xmlns:xlink="http://www.w3.org/1999/xlink" xmlns:sketch="http://www.bohemiancoding.com/sketch/ns">
    <title>Pause</title>
    <description>Created with Sketch (http://www.bohemiancoding.com/sketch)</description>
    <defs></defs>
    <g id="Page 1" stroke="none" stroke-width="1" fill="none" fill-rule="evenodd">
        <g id="Pause" fill="#FFFFFF">
            <path d="M184.527845,253.392944 C184.527845,256.668897 181.871843,259.325493 178.595296,259.325493 L148.932549,259.325493 C145.656002,259.325493 143,256.668897 143,253.392944 L143,146.013801 C143,142.737254 145.656002,140.081252 148.932549,140.081252 L178.595296,140.081252 C181.871843,140.081252 184.527845,142.737254 184.527845,146.013801 Z M255.881188,253.986199 C255.881188,257.262152 253.225186,259.918748 249.948639,259.918748 L220.285892,259.918748 C217.009345,259.918748 214.353343,257.262152 214.353343,253.986199 L214.353343,146.607056 C214.353343,143.330509 217.009345,140.674507 220.285892,140.674507 L249.948639,140.674507 C253.225186,140.674507 255.881188,143.330509 255.881188,146.607056 Z M255.881188,253.986199" id="Shape"></path>
        </g>
    </g>
</svg>