<?xml version="1.0" encoding="UTF-8" standalone="no"?>
<svg width="400px" height="400px" viewBox="0 0 400 400" version="1.1" xmlns="http://www.w3.org/2000/svg" xmlns:xlink="http://www.w3.org/1999/xlink" xmlns:sketch="http://www.bohemiancoding.com/sketch/ns">
    <title>Search</title>
    <description>Created with Sketch (http://www.bohemiancoding.com/sketch)</description>
    <defs></defs>
    <g id="Page-1" stroke="none" stroke-width="1" fill="none" fill-rule="evenodd" sketch:type="MSPage">
        <g id="Search" sketch:type="MSArtboardGroup" fill="#9F9F9F">
            <path d="M298.867644,270.481904 L261.113328,232.722747 C271.370127,217.951214 277.400263,200.013314 277.400263,180.700418 C277.400263,130.241906 236.339177,89.1977654 185.883086,89.1977654 C135.424574,89.1977654 94.3780123,130.241906 94.3780123,180.700418 C94.3780123,231.171034 135.424574,272.212754 185.883086,272.212754 C199.787984,272.212754 212.969072,269.089962 224.782425,263.51493 L265.310942,304.048289 C269.68043,308.403252 275.512063,310.802235 281.716494,310.802235 C288.075855,310.802235 294.076942,308.304001 298.611042,303.779583 C307.85838,294.529824 307.972156,279.581575 298.867644,270.481904 C298.867644,270.481904 307.972156,279.581575 298.867644,270.481904 L298.867644,270.481904 L298.867644,270.481904 Z M130.977621,180.700418 C130.977621,150.4287 155.611368,125.792532 185.883086,125.792532 C216.159645,125.792532 240.793392,150.4287 240.793392,180.700418 C240.793392,210.981819 216.159645,235.615566 185.883086,235.615566 C155.611368,235.615566 130.977621,210.981819 130.977621,180.700418 C130.977621,180.700418 130.977621,210.981819 130.977621,180.700418 L130.977621,180.700418 L130.977621,180.700418 Z M130.977621,180.700418" id="Shape" sketch:type="MSShapeGroup"></path>
        </g>
    </g>
</svg>