<?xml version="1.0" encoding="UTF-8" standalone="no"?>
<svg width="400px" height="400px" viewBox="0 0 400 400" version="1.1" xmlns="http://www.w3.org/2000/svg" xmlns:xlink="http://www.w3.org/1999/xlink" xmlns:sketch="http://www.bohemiancoding.com/sketch/ns">
    <title>Setting</title>
    <description>Created with Sketch (http://www.bohemiancoding.com/sketch)</description>
    <defs></defs>
    <g id="Page 1" stroke="none" stroke-width="1" fill="none" fill-rule="evenodd">
        <g id="Setting" fill="#9F9F9F">
            <path d="M149.952852,186.487063 L157.935594,186.487063 C158.60713,184.480902 159.416608,182.538194 160.352789,180.670075 L154.702679,175.019965 C150.787376,171.104662 150.791345,164.77743 154.69631,160.872465 L160.372465,155.19631 C164.28101,151.287765 170.611482,151.294196 174.519965,155.202679 L180.09707,160.779784 C181.986879,159.81515 183.954111,158.980725 185.987063,158.288273 L185.987063,150.452852 C185.987063,144.915777 190.463897,140.444555 195.986353,140.444555 L204.013647,140.444555 C209.541164,140.444555 214.012937,144.925422 214.012937,150.452852 L214.012937,157.995647 C216.149153,158.673414 218.215814,159.506854 220.199943,160.482771 L225.480035,155.202679 C229.395338,151.287376 235.72257,151.291345 239.627535,155.19631 L245.30369,160.872465 C249.212235,164.78101 249.205804,171.111482 245.297321,175.019965 L240.236255,180.081031 C241.300753,182.128956 242.211735,184.269258 242.954116,186.487063 L250.047148,186.487063 C255.584223,186.487063 260.055445,190.963897 260.055445,196.486353 L260.055445,204.513647 C260.055445,210.041164 255.574578,214.512937 250.047148,214.512937 L243.100423,214.512937 C242.366963,216.78328 241.457301,218.974369 240.387498,221.070212 L245.297321,225.980035 C249.212624,229.895338 249.208655,236.22257 245.30369,240.127535 L239.627535,245.80369 C235.71899,249.712235 229.388518,249.705804 225.480035,245.797321 L220.602074,240.91936 C218.422654,241.854126 216.256132,242.7375 214.012937,243.449208 L214.012937,250.547148 C214.012937,256.084223 209.536103,260.555445 204.013647,260.555445 L195.986353,260.555445 C190.458836,260.555445 185.987063,256.074578 185.987063,250.547148 L185.987063,243.156582 C183.848621,242.428199 181.782894,241.542725 179.803458,240.513828 L174.519965,245.797321 C170.604662,249.712624 164.27743,249.708655 160.372465,245.80369 L154.69631,240.127535 C150.787765,236.21899 150.794196,229.888518 154.702679,225.980035 L160.205199,220.477515 C159.263166,218.562276 158.453892,216.570146 157.789287,214.512937 L149.952852,214.512937 C144.415777,214.512937 139.944555,210.036103 139.944555,204.513647 L139.944555,196.486353 C139.944555,190.958836 144.425422,186.487063 149.952852,186.487063 Z M200.5,223 C212.374123,223 222,213.374123 222,201.5 C222,189.625877 212.374123,180 200.5,180 C188.625877,180 179,189.625877 179,201.5 C179,213.374123 188.625877,223 200.5,223 Z M200.5,223" id="Rectangle 10"></path>
        </g>
    </g>
</svg>