<?xml version="1.0" encoding="UTF-8" standalone="no"?>
<svg width="400px" height="400px" viewBox="0 0 400 400" version="1.1" xmlns="http://www.w3.org/2000/svg" xmlns:xlink="http://www.w3.org/1999/xlink" xmlns:sketch="http://www.bohemiancoding.com/sketch/ns">
    <title>Share</title>
    <description>Created with Sketch (http://www.bohemiancoding.com/sketch)</description>
    <defs></defs>
    <g id="Page 1" stroke="none" stroke-width="1" fill="none" fill-rule="evenodd">
        <g id="Share" fill="#9F9F9F">
            <path d="M223.487144,224.083639 L184.02249,203.390506 C184.179786,202.334464 184.285658,201.261314 184.285658,200.158614 C184.285658,199.538053 184.246334,198.926824 184.19491,198.318706 L224.034655,177.432718 C227.631288,180.561961 232.276057,182.456304 237.357927,182.456304 C248.757349,182.456304 258,172.953483 258,161.229707 C258,149.505932 248.757349,140 237.357927,140 C225.955481,140 216.71283,149.504377 216.71283,161.229707 C216.71283,161.876708 216.752154,162.514377 216.808115,163.145824 L177.019794,184.006928 C173.417111,180.848134 168.751167,178.930462 163.645098,178.930462 C152.244164,178.930462 143,188.434838 143,200.158614 C143,211.882389 152.244164,221.386766 163.645098,221.386766 C168.24298,221.386766 172.473335,219.822144 175.903597,217.209257 L216.767278,238.633376 C216.747616,239.012866 216.711317,239.387691 216.711317,239.771848 C216.711317,251.497179 225.953969,261 237.356415,261 C248.755836,261 257.998488,251.497179 257.998488,239.771848 C258,228.051183 248.755836,218.548362 237.356415,218.548362 C232.009864,218.548362 227.15335,220.654224 223.487144,224.083639 Z M223.487144,224.083639" id="Shape"></path>
        </g>
    </g>
</svg>