<?xml version="1.0" encoding="UTF-8" standalone="no"?>
<svg width="400px" height="400px" viewBox="0 0 400 400" version="1.1" xmlns="http://www.w3.org/2000/svg" xmlns:xlink="http://www.w3.org/1999/xlink" xmlns:sketch="http://www.bohemiancoding.com/sketch/ns">
    <title>Trash</title>
    <description>Created with Sketch (http://www.bohemiancoding.com/sketch)</description>
    <defs></defs>
    <g id="Page 1" stroke="none" stroke-width="1" fill="none" fill-rule="evenodd">
        <g id="Trash" fill="#9F9F9F">
            <path d="M180.002643,174 C175.582905,174 172,177.579715 172,181.99606 L172,249.00394 C172,253.420042 175.573755,257 180.002643,257 L182.997357,257 C187.417095,257 191,253.420285 191,249.00394 L191,181.99606 C191,177.579958 187.426245,174 182.997357,174 Z M185.999915,129 L217.000085,129 C222.518788,129 227,133.477426 227,139.000612 L227,143 L260.507629,143 C265.192848,143 269,146.80558 269,151.5 C269,156.184868 265.197836,160 260.507629,160 L249.621317,160 C249.868503,160.959676 250,161.965764 250,163.002555 L250,259.997445 C250,266.624993 244.631446,272 238.008999,272 L162.991001,272 C156.375361,272 151,266.626273 151,259.997445 L151,163.002555 C151,161.965812 151.131369,160.959719 151.378372,160 L140.492371,160 C135.807152,160 132,156.19442 132,151.5 C132,146.815132 135.802164,143 140.492371,143 L176,143 L176,139.000612 C176,133.474559 180.477114,129 185.999915,129 Z M220.002643,174 C215.582905,174 212,177.579715 212,181.99606 L212,249.00394 C212,253.420042 215.573755,257 220.002643,257 L222.997357,257 C227.417095,257 231,253.420285 231,249.00394 L231,181.99606 C231,177.579958 227.426245,174 222.997357,174 Z M220.002643,174" id="Rectangle 1"></path>
        </g>
    </g>
</svg>