<?xml version="1.0" encoding="UTF-8" standalone="no"?>
<svg width="400px" height="400px" viewBox="0 0 400 400" version="1.1" xmlns="http://www.w3.org/2000/svg" xmlns:xlink="http://www.w3.org/1999/xlink" xmlns:sketch="http://www.bohemiancoding.com/sketch/ns">
    <title>unstar</title>
    <description>Created with Sketch (http://www.bohemiancoding.com/sketch)</description>
    <defs></defs>
    <g id="Page-1" stroke="none" stroke-width="1" fill="none" fill-rule="evenodd" sketch:type="MSPage">
        <g id="unstar" sketch:type="MSArtboardGroup" stroke="#A57E0E" fill="#EDAB07">
            <path d="M279.74639,370.285283 L200.057257,311.426197 L120.354265,370.285283 C115.448186,373.888618 109.668991,375.731862 103.875938,375.731862 C98.1660381,375.731862 92.4561385,373.944054 87.5916366,370.396155 C77.793338,363.314216 73.7326569,350.688686 77.5715943,339.213451 L108.892888,245.207992 L28.3029216,187.582354 C18.463046,180.528134 14.3192111,167.958039 18.0472766,156.455086 C21.7614832,145.021428 32.4190385,137.301976 44.4347739,137.301976 C44.4902098,137.301976 143.720504,138.091938 143.720504,138.091938 L173.614323,43.6291324 C177.245376,32.1123203 187.958367,24.2681378 200.029539,24.2681378 C212.10071,24.2681378 222.82756,32.1123203 226.430895,43.6291324 L256.310855,138.091938 L355.347124,137.301976 C367.570744,137.301976 378.297594,145.021428 381.928647,156.455086 C385.68443,167.971898 381.596031,180.528134 371.742297,187.582354 L291.193907,245.207992 L322.556778,339.213451 C326.340279,350.660968 322.279598,363.286498 312.564454,370.396155 C307.686093,373.944054 301.934616,375.731862 296.224717,375.731862 C290.403945,375.731862 284.63861,373.888618 279.74639,370.285283 Z M279.74639,370.285283" id="star3" sketch:type="MSShapeGroup"></path>
        </g>
    </g>
</svg>